#!OML:ASF F:\VICON\USERDATA\INSTALL\rory3\rory3.ASF
:FULLY-SPECIFIED
:DEGREES
3394
root -0.168708 16.1703 -2.19423 38.221 -0.967099 2.9954
lowerback 29.5651 0.098954 -1.61014
upperback 6.45374 -0.312877 0.222527
thorax -9.00677 -0.103412 1.29392
lowerneck -3.84028 -9.9824 -17.4652
upperneck -21.4335 -10.0329 29.6864
head -2.52549 -5.74713 12.8003
rclavicle -7.95139e-016 -6.16232e-015
rhumerus 26.171 16.8808 -84.3808
rradius 98.7725
rwrist 28.9592
rhand 18.5478 2.61436
rfingers 7.12502
rthumb 43.1799 -21.5677
lclavicle -7.95139e-016 -6.16232e-015
lhumerus 21.7539 -11.1669 91.1223
lradius 107.66
lwrist -17.5909
lhand 8.40275 38.5778
lfingers 7.12502
lthumb 33.6099 65.4473
rfemur -70.8279 2.82023 10.8382
rtibia 51.1446
rfoot -18.2651 -7.53765
rtoes -23.4615
lfemur -69.8408 -4.13467 -14.545
ltibia 48.7296
lfoot -15.9514 1.08431
ltoes -19.6905
3395
root -0.173063 16.2632 -2.17702 38.6261 -0.755084 3.0957
lowerback 29.1315 0.132121 -1.71266
upperback 6.32011 -0.26518 0.481807
thorax -8.9457 -0.076566 1.62509
lowerneck -3.95282 -9.98843 -17.5571
upperneck -21.2351 -10.0708 29.5515
head -2.44856 -5.73542 12.7393
rclavicle 1.35174e-014 -2.38542e-015
rhumerus 25.293 17.0587 -84.5199
rradius 99.3674
rwrist 28.8787
rhand 18.0115 2.62377
rfingers 7.12502
rthumb 42.6783 -21.7349
lclavicle 1.35174e-014 -2.38542e-015
lhumerus 22.207 -11.013 90.9261
lradius 107.781
lwrist -17.4112
lhand 7.50913 38.7365
lfingers 7.12502
lthumb 32.7602 65.787
rfemur -70.2321 2.79945 10.6378
rtibia 49.526
rfoot -17.518 -7.66
rtoes -24.0322
lfemur -69.239 -4.47455 -14.3075
ltibia 46.8985
lfoot -15.3029 1.30273
ltoes -20.28
3396
root -0.179701 16.3407 -2.16041 38.9173 -0.465417 3.14951
lowerback 28.8037 0.114936 -1.69879
upperback 6.19236 -0.251174 0.718749
thorax -8.9288 -0.0672574 1.87614
lowerneck -4.01923 -9.99625 -17.6784
upperneck -21.0537 -10.1065 29.4977
head -2.37443 -5.7295 12.7192
rclavicle -8.74653e-015 2.5842e-015
rhumerus 24.6048 17.2492 -84.7253
rradius 99.9156
rwrist 28.8223
rhand 17.5222 2.54176
rfingers 7.12502
rthumb 42.2202 -21.9741
lclavicle -8.74653e-015 2.5842e-015
lhumerus 23.0675 -10.6467 91.0978
lradius 108.032
lwrist -17.4005
lhand 7.49377 38.7924
lfingers 7.12502
lthumb 32.7456 65.8459
rfemur -69.5949 2.81041 10.5189
rtibia 48.0678
rfoot -16.9542 -7.80618
rtoes -24.0956
lfemur -68.6346 -4.78803 -14.0078
ltibia 45.229
lfoot -14.4668 1.41902
ltoes -20.8919
3397
root -0.186434 16.4053 -2.14598 39.1724 -0.291597 3.27548
lowerback 28.462 0.115929 -1.78174
upperback 6.06839 -0.252659 0.859227
thorax -8.89905 -0.0638853 2.0797
lowerneck -4.06864 -9.99693 -17.7512
upperneck -20.8691 -10.1271 29.5026
head -2.30287 -5.7243 12.7151
rclavicle 4.77083e-015 6.16232e-015
rhumerus 24.047 17.3772 -85.0627
rradius 100.388
rwrist 28.8728
rhand 17.1395 2.54036
rfingers 7.12502
rthumb 41.8616 -22.0959
lclavicle 4.77083e-015 6.16232e-015
lhumerus 23.7446 -10.6076 90.8178
lradius 108.145
lwrist -16.9057
lhand 6.59225 38.778
lfingers 7.12502
lthumb 31.8875 66.0064
rfemur -69.0368 2.80887 10.3093
rtibia 46.781
rfoot -16.5046 -7.89817
rtoes -24.2682
lfemur -68.0783 -5.06358 -13.8482
ltibia 43.7401
lfoot -13.6489 1.52443
ltoes -21.7497
3398
root -0.189783 16.4646 -2.13296 39.3975 -0.209663 3.42452
lowerback 28.1208 0.127429 -1.97928
upperback 5.92636 -0.275935 0.973379
thorax -8.88706 -0.0677799 2.32737
lowerneck -4.12903 -9.95672 -17.7961
upperneck -20.6471 -10.0945 29.4888
head -2.23583 -5.69066 12.7025
rclavicle -1.19271e-015 -9.14409e-015
rhumerus 23.5863 17.5609 -85.3436
rradius 100.725
rwrist 29.0083
rhand 16.7964 2.69973
rfingers 7.12502
rthumb 41.5398 -22.0426
lclavicle -1.19271e-015 -9.14409e-015
lhumerus 24.0042 -10.6942 90.3257
lradius 107.952
lwrist -16.4252
lhand 5.16503 38.4892
lfingers 7.12502
lthumb 30.5274 65.9796
rfemur -68.5428 2.81677 10.0312
rtibia 45.6355
rfoot -16.0355 -7.94039
rtoes -24.1705
lfemur -67.566 -5.35633 -13.7363
ltibia 42.4123
lfoot -13.1198 1.69527
ltoes -21.8025
3399
root -0.191497 16.5189 -2.12138 39.5389 -0.0595326 3.425
lowerback 27.8872 0.0964129 -1.9582
upperback 5.78053 -0.292779 1.09285
thorax -8.9341 -0.0727462 2.45345
lowerneck -4.21419 -9.91878 -17.8877
upperneck -20.3959 -10.0638 29.5063
head -2.14939 -5.65378 12.7069
rclavicle -8.74653e-015 1.39149e-015
rhumerus 23.1085 17.8581 -85.5587
rradius 101.11
rwrist 29.0925
rhand 16.3713 2.73157
rfingers 7.12502
rthumb 41.1408 -22.1399
lclavicle -8.74653e-015 1.39149e-015
lhumerus 24.5569 -10.5045 90.4018
lradius 107.853
lwrist -16.6457
lhand 5.36895 38.4502
lfingers 7.12502
lthumb 30.7218 65.9044
rfemur -67.9989 2.89122 9.94039
rtibia 44.5727
rfoot -15.6202 -8.02869
rtoes -23.7318
lfemur -67.0554 -5.6292 -13.4474
ltibia 41.2487
lfoot -12.7193 1.89714
ltoes -21.349
3400
root -0.194666 16.5664 -2.11177 39.568 0.102926 3.34863
lowerback 27.7144 0.0215574 -1.81747
upperback 5.68138 -0.338639 1.15864
thorax -8.95803 -0.0954008 2.46023
lowerneck -4.3143 -9.85906 -17.8956
upperneck -20.1684 -9.99854 29.494
head -2.0844 -5.60344 12.69
rclavicle -3.97569e-015 -8.94531e-015
rhumerus 22.7101 18.203 -85.8818
rradius 101.526
rwrist 29.1466
rhand 16.0412 2.83188
rfingers 7.12502
rthumb 40.8308 -22.138
lclavicle -3.97569e-015 -8.94531e-015
lhumerus 25.2782 -10.1923 90.4206
lradius 107.805
lwrist -17.0349
lhand 6.10017 38.2331
lfingers 7.12502
lthumb 31.4188 65.5539
rfemur -67.376 2.99852 9.99216
rtibia 43.5557
rfoot -15.2256 -8.15927
rtoes -23.3617
lfemur -66.5068 -5.90239 -13.0462
ltibia 40.2387
lfoot -12.3353 2.14149
ltoes -21.3872
3401
root -0.196846 16.6033 -2.10511 39.5748 0.234443 3.18012
lowerback 27.4894 -0.0496594 -1.62889
upperback 5.61118 -0.370668 1.19112
thorax -8.92437 -0.114589 2.396
lowerneck -4.44505 -9.80099 -17.7478
upperneck -19.9699 -9.93427 29.4014
head -2.04076 -5.55898 12.6141
rclavicle 3.97569e-015 -4.96962e-015
rhumerus 22.4935 18.4729 -86.1647
rradius 101.876
rwrist 29.0577
rhand 15.7233 2.96684
rfingers 7.12502
rthumb 40.532 -22.0965
lclavicle 3.97569e-015 -4.96962e-015
lhumerus 25.8988 -9.85539 90.218
lradius 107.607
lwrist -17.4937
lhand 7.10491 37.1473
lfingers 7.12502
lthumb 32.3755 64.2772
rfemur -66.8283 3.21391 10.0861
rtibia 42.5824
rfoot -14.7743 -8.41807
rtoes -24.0711
lfemur -66.0194 -6.0909 -12.6155
ltibia 39.3864
lfoot -12.0497 2.51494
ltoes -22.4484
3402
root -0.197939 16.6343 -2.10061 39.5341 0.359211 3.00003
lowerback 27.3086 -0.102498 -1.38354
upperback 5.5345 -0.368819 1.19173
thorax -8.92239 -0.119392 2.2525
lowerneck -4.56566 -9.77461 -17.6039
upperneck -19.7488 -9.91344 29.3828
head -1.97362 -5.54017 12.5604
rclavicle -6.36111e-015 2.0276e-014
rhumerus 22.3644 18.5962 -86.4151
rradius 102.137
rwrist 28.9039
rhand 15.2426 3.08924
rfingers 7.12502
rthumb 40.0799 -22.1127
lclavicle -6.36111e-015 2.0276e-014
lhumerus 26.4616 -9.59284 90.3466
lradius 107.104
lwrist -17.971
lhand 8.13302 35.8975
lfingers 7.12502
lthumb 33.3535 62.8224
rfemur -66.3074 3.51123 10.1174
rtibia 41.7045
rfoot -14.2952 -8.80715
rtoes -25.3625
lfemur -65.5658 -6.20567 -12.2691
ltibia 38.678
lfoot -11.8527 2.82744
ltoes -23.2281
3403
root -0.197818 16.6633 -2.09726 39.4341 0.415221 2.89158
lowerback 27.1862 -0.158818 -1.19152
upperback 5.45834 -0.392451 1.14132
thorax -8.94776 -0.134987 2.09237
lowerneck -4.54216 -9.72347 -17.5047
upperneck -19.6227 -9.85644 29.4253
head -1.95772 -5.51612 12.558
rclavicle 4.77083e-015 0
rhumerus 22.3169 18.7189 -86.6874
rradius 102.391
rwrist 28.7855
rhand 14.6727 3.12455
rfingers 7.12502
rthumb 39.5435 -22.2376
lclavicle 4.77083e-015 0
lhumerus 26.9725 -9.40884 90.7374
lradius 106.617
lwrist -18.0864
lhand 8.28291 35.6622
lfingers 7.12502
lthumb 33.496 62.5565
rfemur -65.7861 3.76447 10.0781
rtibia 40.9639
rfoot -13.887 -9.06709
rtoes -26.1703
lfemur -65.1258 -6.33952 -12.0373
ltibia 38.119
lfoot -11.8237 3.00949
ltoes -21.9917
3404
root -0.197093 16.6831 -2.09577 39.2804 0.353246 2.82291
lowerback 27.1254 -0.194615 -1.10867
upperback 5.38486 -0.428742 1.01673
thorax -9.00029 -0.154461 1.91765
lowerneck -4.44357 -9.65359 -17.27
upperneck -19.5607 -9.77706 29.4143
head -1.99272 -5.49435 12.5216
rclavicle 9.93923e-015 -2.14687e-014
rhumerus 22.301 18.8541 -87.0233
rradius 102.642
rwrist 28.6705
rhand 14.3591 3.12911
rfingers 7.12502
rthumb 39.2481 -22.3194
lclavicle 9.93923e-015 -2.14687e-014
lhumerus 27.2336 -9.49618 90.6505
lradius 106.457
lwrist -18.0203
lhand 7.90416 35.9514
lfingers 7.12502
lthumb 33.1359 62.9228
rfemur -65.3247 3.99905 10.0036
rtibia 40.4078
rfoot -13.6292 -9.19196
rtoes -26.2764
lfemur -64.6963 -6.46752 -11.9048
ltibia 37.7022
lfoot -11.8252 3.4086
ltoes -21.8729
3405
root -0.196553 16.6929 -2.1001 39.1174 0.306572 2.64641
lowerback 27.1139 -0.232428 -1.03486
upperback 5.32997 -0.464824 0.945699
thorax -9.05634 -0.173311 1.80844
lowerneck -4.49496 -9.56943 -17.0336
upperneck -19.4356 -9.66964 29.3877
head -1.99221 -5.44565 12.4692
rclavicle -4.37326e-015 -5.56597e-015
rhumerus 22.3966 19.0368 -87.2834
rradius 102.885
rwrist 28.5222
rhand 14.3298 3.14771
rfingers 7.12502
rthumb 39.2204 -22.3088
lclavicle -4.37326e-015 -5.56597e-015
lhumerus 27.3594 -9.87841 89.6738
lradius 106.607
lwrist -17.5122
lhand 7.22204 36.8178
lfingers 7.12502
lthumb 32.487 63.9249
rfemur -64.9891 4.2895 10.0417
rtibia 40.0333
rfoot -13.472 -9.30522
rtoes -26.2917
lfemur -64.3728 -6.48341 -11.6969
ltibia 37.44
lfoot -11.8165 3.77395
ltoes -22.4503
3406
root -0.196064 16.6979 -2.10622 38.9007 0.160612 2.53287
lowerback 27.1704 -0.25824 -1.09453
upperback 5.30901 -0.524604 0.856473
thorax -9.10659 -0.200165 1.76455
lowerneck -4.64005 -9.48368 -16.9577
upperneck -19.2684 -9.54383 29.4983
head -1.94347 -5.37685 12.4924
rclavicle -6.95746e-015 8.44835e-015
rhumerus 22.6884 19.2895 -87.4077
rradius 103.001
rwrist 28.3818
rhand 14.3447 3.12719
rfingers 7.12502
rthumb 39.2345 -22.3253
lclavicle -6.95746e-015 8.44835e-015
lhumerus 27.7847 -9.97236 89.0802
lradius 106.759
lwrist -17.1866
lhand 7.60006 37.9482
lfingers 7.12502
lthumb 32.8467 64.9806
rfemur -64.6978 4.52674 10.0465
rtibia 39.8046
rfoot -13.3713 -9.32478
rtoes -26.2375
lfemur -64.0736 -6.46474 -11.6293
ltibia 37.3478
lfoot -11.8371 4.01511
ltoes -22.4326
3407
root -0.198048 16.6974 -2.11139 38.6657 -0.0724115 2.417
lowerback 27.2182 -0.234924 -1.24512
upperback 5.28982 -0.548493 0.759628
thorax -9.15092 -0.208271 1.75233
lowerneck -4.71022 -9.40171 -16.9757
upperneck -19.1422 -9.42162 29.6707
head -1.9064 -5.3132 12.5636
rclavicle 9.93923e-015 -1.28216e-014
rhumerus 23.0057 19.4986 -87.4727
rradius 103.075
rwrist 28.3257
rhand 14.2508 3.11494
rfingers 7.12502
rthumb 39.146 -22.3631
lclavicle 9.93923e-015 -1.28216e-014
lhumerus 28.3049 -9.61429 89.4898
lradius 106.656
lwrist -17.8146
lhand 9.48552 38.1475
lfingers 7.12502
lthumb 34.6382 64.7873
rfemur -64.4933 4.80406 10.0454
rtibia 39.7232
rfoot -13.3027 -9.32615
rtoes -26.1235
lfemur -63.8219 -6.40937 -11.5594
ltibia 37.4207
lfoot -11.9519 4.2236
ltoes -21.8318
